<?xml version="1.0" encoding="iso-8859-1"?>
<!-- Uploaded to: SVG Repo, www.svgrepo.com, Generator: SVG Repo Mixer Tools -->
<svg version="1.1" id="Layer_1" xmlns="http://www.w3.org/2000/svg" xmlns:xlink="http://www.w3.org/1999/xlink" 
	 viewBox="0 0 511.984 511.984" xml:space="preserve">
<rect x="42.393" y="10.68" style="fill:#E6E9ED;" width="427.2" height="383.81"/>
<path style="fill:#FC6E51;" d="M469.598,405.174H42.394c-5.897,0-10.679-4.781-10.679-10.688V10.68C31.714,4.782,36.495,0,42.394,0
	h427.205c5.89,0,10.671,4.781,10.671,10.68v383.806C480.27,400.392,475.488,405.174,469.598,405.174z M53.074,383.831h405.854
	V21.359H53.074V383.831z"/>
<path style="fill:#434A54;" d="M427.193,455.329c-29.607-27.562-26.076-49.812-19.857-61.998c3.593-4.938,5.624-10.531,5.624-16.469
	c0-19.75-22.468-35.779-50.155-35.779c-27.7,0-50.153,16.029-50.153,35.779c0,5.938,2.031,11.531,5.625,16.469
	c6.219,12.187,9.75,34.436-19.875,61.998v16.937c11.969,6.218,40.391,6.749,64.403,2.969c24,3.78,52.437,3.249,64.389-2.969v-16.937
	H427.193z"/>
<path style="fill:#CCD1D9;" d="M426.88,447.891H298.714c-5.906,0-10.687,4.781-10.687,10.688v42.717
	c0,5.906,4.78,10.688,10.687,10.688H426.88c5.891,0,10.672-4.781,10.672-10.688v-42.717
	C437.552,452.673,432.771,447.891,426.88,447.891z"/>
<g>
	<path style="fill:#4A89DC;" d="M213.278,106.138H85.112c-5.898,0-10.679,4.781-10.679,10.679v85.443
		c0,5.897,4.78,10.679,10.679,10.679h128.167c5.898,0,10.68-4.781,10.68-10.679v-85.443
		C223.958,110.919,219.177,106.138,213.278,106.138z M202.592,191.58H95.792v-64.084h106.801V191.58z"/>
	<path style="fill:#4A89DC;" d="M117.681,170.214h64.076c5.898,0,10.679-4.781,10.679-10.68s-4.78-10.68-10.679-10.68h-64.076
		c-5.898,0-10.687,4.781-10.687,10.68S111.783,170.214,117.681,170.214z"/>
</g>
<g>
	<path style="fill:#967ADC;" d="M427.693,217.993c6.266-10.945,9.859-23.608,9.859-37.1c0-13.484-3.594-26.148-9.859-37.093
		c-0.047-0.094-0.094-0.188-0.141-0.281c-0.094-0.133-0.172-0.25-0.25-0.375c-6.483-11.031-15.718-20.266-26.748-26.75
		c-0.125-0.086-0.25-0.172-0.375-0.242c-0.094-0.055-0.188-0.102-0.297-0.156c-10.938-6.272-23.594-9.858-37.078-9.858
		c-13.498,0-26.153,3.594-37.091,9.866c-0.094,0.055-0.203,0.094-0.297,0.148c-0.125,0.07-0.234,0.156-0.359,0.234
		c-11.047,6.484-20.281,15.727-26.766,26.766c-0.078,0.125-0.172,0.234-0.234,0.367c-0.062,0.094-0.094,0.188-0.156,0.281
		c-6.281,10.937-9.874,23.608-9.874,37.093c0,13.491,3.593,26.162,9.874,37.1c0.062,0.094,0.094,0.188,0.156,0.281
		c0.125,0.219,0.25,0.43,0.391,0.633c6.484,10.921,15.656,20.062,26.609,26.499c0.125,0.078,0.234,0.156,0.359,0.234
		c0.172,0.109,0.359,0.188,0.516,0.281c10.891,6.203,23.468,9.734,36.872,9.734c13.375,0,25.969-3.531,36.844-9.734
		c0.188-0.078,0.359-0.172,0.531-0.281c0.125-0.078,0.25-0.156,0.375-0.234c10.937-6.438,20.124-15.578,26.592-26.499
		c0.141-0.203,0.281-0.414,0.406-0.633C427.598,218.18,427.646,218.087,427.693,217.993z M399.805,202.26
		c-2.781,4.78-1.406,10.819,2.969,13.983c-1.438,1.641-3,3.188-4.625,4.633c-3.172-4.383-9.203-5.742-14-2.984
		c-4.781,2.773-6.625,8.687-4.391,13.632c-2.062,0.688-4.172,1.273-6.328,1.711c-0.531-5.398-5.094-9.617-10.625-9.617
		c-5.546,0-10.092,4.219-10.623,9.617c-2.172-0.438-4.281-1.023-6.344-1.711c2.219-4.945,0.391-10.866-4.406-13.632
		c-4.78-2.758-10.812-1.398-13.983,2.984c-1.641-1.453-3.172-2.992-4.625-4.633c4.391-3.164,5.734-9.203,2.984-13.983
		c-2.781-4.797-8.688-6.633-13.625-4.406c-0.703-2.055-1.281-4.164-1.719-6.328c5.406-0.539,9.625-5.086,9.625-10.632
		c0-5.531-4.219-10.086-9.625-10.625c0.438-2.164,1.031-4.273,1.719-6.336c1.406,0.633,2.891,0.945,4.359,0.945
		c3.703,0,7.281-1.914,9.266-5.344c2.75-4.781,1.406-10.82-2.984-13.983c1.453-1.641,2.984-3.188,4.641-4.633
		c2.047,2.836,5.312,4.414,8.656,4.414c1.812,0,3.641-0.461,5.312-1.43c4.797-2.773,6.625-8.688,4.406-13.633
		c2.062-0.688,4.172-1.273,6.344-1.711c0.531,5.398,5.077,9.617,10.623,9.617c5.531,0,10.094-4.219,10.625-9.617
		c2.156,0.438,4.266,1.023,6.328,1.711c-2.234,4.945-0.391,10.859,4.391,13.633c1.688,0.969,3.531,1.43,5.344,1.43
		c3.344,0,6.594-1.578,8.656-4.414c1.625,1.445,3.188,2.992,4.625,4.633c-4.375,3.163-5.75,9.202-2.969,13.983
		c1.969,3.43,5.562,5.344,9.249,5.344c1.469,0,2.969-0.312,4.375-0.945c0.688,2.062,1.266,4.172,1.703,6.336
		c-5.391,0.539-9.608,5.094-9.608,10.625c0,5.546,4.218,10.093,9.608,10.632c-0.438,2.164-1.016,4.273-1.703,6.328
		C408.49,195.627,402.555,197.463,399.805,202.26z"/>
	<path style="fill:#967ADC;" d="M362.805,148.854c-8.562,0-16.607,3.336-22.653,9.383c-6.062,6.055-9.391,14.102-9.391,22.656
		c0,8.562,3.328,16.608,9.391,22.663c6.046,6.046,14.092,9.382,22.653,9.382c8.562,0,16.594-3.336,22.656-9.382
		c12.484-12.5,12.484-32.827,0-45.319C379.397,152.19,371.366,148.854,362.805,148.854z M370.35,188.447
		c-2.078,2.086-4.828,3.133-7.547,3.133c-2.75,0-5.468-1.047-7.562-3.133c-4.155-4.172-4.155-10.929,0-15.101
		c2.094-2.086,4.812-3.133,7.562-3.133c2.719,0,5.469,1.047,7.547,3.133C374.522,177.518,374.522,184.275,370.35,188.447z"/>
</g>
<g>
	<path style="fill:#8CC153;" d="M213.286,341.083h-0.008H85.112c-4.047,0-7.742-2.281-9.555-5.875
		c-1.804-3.625-1.413-7.969,1.008-11.188l64.084-85.458c2.016-2.68,5.188-4.266,8.547-4.266s6.523,1.586,8.547,4.266l63.794,85.052
		c1.516,1.844,2.43,4.219,2.43,6.812C223.966,336.302,219.184,341.083,213.286,341.083z M106.471,319.74h85.441l-42.717-56.96
		L106.471,319.74z"/>
	<path style="fill:#8CC153;" d="M157.273,290.834c4.171,4.156,4.171,10.938,0,15.094c-4.172,4.156-10.938,4.156-15.109,0
		s-4.172-10.938,0-15.094C146.336,286.646,153.101,286.646,157.273,290.834z"/>
</g>
<g>
	<path style="fill:#434A54;" d="M213.278,42.054H85.112c-5.898,0-10.679,4.781-10.679,10.68c0,5.897,4.78,10.679,10.679,10.679
		h128.167c5.898,0,10.68-4.781,10.68-10.679C223.958,46.835,219.177,42.054,213.278,42.054z"/>
	<path style="fill:#434A54;" d="M426.88,42.054H298.714c-5.906,0-10.687,4.781-10.687,10.68c0,5.897,4.78,10.679,10.687,10.679
		H426.88c5.891,0,10.672-4.781,10.672-10.679C437.552,46.835,432.771,42.054,426.88,42.054z"/>
</g>
<rect x="245.313" y="0.001" style="opacity:0.1;enable-background:new    ;" width="21.359" height="405.17"/>
</svg>