<?xml version="1.0" encoding="iso-8859-1"?>
<!-- Uploaded to: SVG Repo, www.svgrepo.com, Generator: SVG Repo Mixer Tools -->
<svg version="1.1" id="Layer_1" xmlns="http://www.w3.org/2000/svg" xmlns:xlink="http://www.w3.org/1999/xlink" 
	 viewBox="0 0 512 512" xml:space="preserve">
<path d="M0,355.2v-324c0.104-5.704,4.696-10.296,10.4-10.4h491.2c5.704,0.104,10.296,4.696,10.4,10.4v324H0z"/>
<g>
	<path style="fill:#BCBCBC;" d="M512,355.2v41.6c-0.104,5.704-4.696,10.296-10.4,10.4H10.4c-5.704-0.104-10.296-4.696-10.4-10.4
		v-41.6H512z"/>
	<rect x="146.4" y="480.8" style="fill:#BCBCBC;" width="219.2" height="10.4"/>
</g>
<polygon style="fill:#666666;" points="328.8,480.8 183.2,480.8 193.6,407.2 318.4,407.2 "/>
<rect x="20.8" y="41.6" style="fill:#FFFFFF;" width="470.4" height="292.8"/>
<polygon style="fill:#333333;" points="318.4,407.2 193.6,407.2 187.792,448.28 320.272,420.424 "/>
<rect x="231.496" y="163.496" style="fill:#CCCCCC;" width="150.616" height="150.616"/>
<path style="fill:#999999;" d="M298.168,230.176H139.552V71.56h158.616V230.176z M147.552,222.176h142.616V79.56H147.552V222.176z"
	/>
<g>
	<circle style="fill:#E21B1B;" cx="143.552" cy="75.552" r="13.664"/>
	<circle style="fill:#E21B1B;" cx="294.176" cy="75.552" r="13.664"/>
	<circle style="fill:#E21B1B;" cx="143.552" cy="226.16" r="13.664"/>
	<circle style="fill:#E21B1B;" cx="294.176" cy="226.16" r="13.664"/>
</g>
</svg>